<svg width="16" height="15" viewBox="0 0 16 15" fill="none" xmlns="http://www.w3.org/2000/svg">
<path d="M3.49932 4.81934H0.481364C0.347422 4.81934 0.238892 4.92791 0.238892 5.06181V14.7572C0.238892 14.8911 0.347422 14.9997 0.481364 14.9997H3.49932C3.63326 14.9997 3.74179 14.8911 3.74179 14.7572V5.06181C3.74179 4.92791 3.63326 4.81934 3.49932 4.81934Z" fill="white"/>
<path d="M1.99147 0C0.893364 0 0 0.892394 0 1.98929C0 3.08667 0.893364 3.9794 1.99147 3.9794C3.08871 3.9794 3.98134 3.08662 3.98134 1.98929C3.98139 0.892394 3.08871 0 1.99147 0Z" fill="white"/>
<path d="M11.1757 4.57812C9.96359 4.57812 9.06756 5.0992 8.52409 5.69127V5.06157C8.52409 4.92767 8.41556 4.81909 8.28161 4.81909H5.3914C5.25746 4.81909 5.14893 4.92767 5.14893 5.06157V14.757C5.14893 14.8909 5.25746 14.9994 5.3914 14.9994H8.40275C8.5367 14.9994 8.64523 14.8909 8.64523 14.757V9.95998C8.64523 8.34352 9.08429 7.71377 10.2111 7.71377C11.4383 7.71377 11.5358 8.72333 11.5358 10.0432V14.757C11.5358 14.8909 11.6444 14.9995 11.7783 14.9995H14.7908C14.9247 14.9995 15.0332 14.8909 15.0332 14.757V9.43891C15.0332 7.03529 14.5749 4.57812 11.1757 4.57812Z" fill="white"/>
</svg>
