<svg width="98" height="82" viewBox="0 0 98 82" fill="none" xmlns="http://www.w3.org/2000/svg">
<path d="M88.8178 13.8974H92.8712V15.0555H91.4649V22.3351H90.2241V15.0555H88.8178V13.8974Z" fill="white"/>
<path d="M94.6911 13.8974L95.6838 19.6466L96.6764 13.8974H98L96.2215 22.3351H95.1047L93.3675 13.8974H94.6911Z" fill="white"/>
<path d="M70.0661 62.0008C70.0661 59.271 69.9007 56.9134 69.6111 54.9694C69.3216 53.0254 68.9493 51.2882 68.453 49.8406C67.9567 48.393 67.419 47.1521 66.7572 46.0767C66.0954 45.0427 65.475 44.0087 64.8546 43.016C64.2342 42.0233 63.6137 41.072 63.0347 40.1207C62.4143 39.1694 61.8766 38.094 61.4216 36.8531C60.9253 35.6537 60.553 34.2474 60.2635 32.6757C59.9739 31.1039 59.8085 29.2013 59.8085 26.9678V17.7029C59.8085 17.0824 59.8912 16.3793 60.098 15.5934C60.3048 14.8076 60.6771 14.0631 61.2561 13.4013C61.8352 12.6981 62.5797 12.1191 63.6137 11.6641C64.6064 11.1678 65.93 10.961 67.5017 10.961C69.1148 10.961 70.397 11.2091 71.3897 11.6641C72.3823 12.1604 73.1682 12.7395 73.7473 13.4013C74.3263 14.1044 74.6986 14.8076 74.9054 15.5934C75.1122 16.3793 75.1949 17.0824 75.1949 17.7029V34.9919H70.0661V17.7029C70.0661 17.0824 69.9834 16.5861 69.8593 16.1725C69.6938 15.7589 69.5284 15.4694 69.2802 15.2625C69.0321 15.0557 68.7839 14.8903 68.453 14.8076C68.1635 14.7248 67.8326 14.6835 67.5017 14.6835C67.1708 14.6835 66.8813 14.7248 66.5504 14.8076C66.2609 14.8903 65.9713 15.0557 65.7232 15.2625C65.475 15.4694 65.3095 15.8002 65.1441 16.1725C64.9787 16.5861 64.9373 17.0824 64.9373 17.7029V25.2306C64.9373 28.1259 65.1855 30.5662 65.7232 32.5102C66.2609 34.4542 66.8813 36.15 67.6672 37.639C68.453 39.0867 69.2389 40.4516 70.0247 41.6924C70.8106 42.9333 71.6378 44.2155 72.5064 45.539C73.375 46.8626 74.0368 48.4343 74.4918 50.2542C74.9467 52.0741 75.1949 54.349 75.1949 57.0375V72.1343C75.1949 72.4239 75.1535 73.0029 75.0708 73.8302C74.9881 74.6574 74.6986 75.4846 74.2436 76.3118C73.7473 77.1804 73.0028 77.9249 71.9687 78.5867C70.9347 79.2485 69.4457 79.5794 67.5431 79.5794C65.6404 79.5794 64.1514 79.2485 63.1174 78.5867C62.0834 77.9249 61.2975 77.1804 60.8425 76.3118C60.3462 75.4433 60.098 74.616 60.0153 73.8302C59.9326 73.0029 59.8912 72.4652 59.8912 72.1343V49.882H65.02V72.1343C65.02 72.4239 65.02 72.7961 65.0614 73.2511C65.1027 73.6647 65.1855 74.0783 65.3509 74.4506C65.5164 74.8228 65.7645 75.1537 66.0954 75.4433C66.4263 75.7328 66.9226 75.8569 67.5844 75.8569C68.2048 75.8569 68.7012 75.7328 69.0734 75.4433C69.4043 75.1537 69.6939 74.8642 69.8179 74.4506C69.9834 74.0783 70.0661 73.6647 70.1075 73.2511C70.1488 72.8375 70.1488 72.4652 70.1488 72.1343V62.0008H70.0661Z" fill="white"/>
<path d="M15.3864 63.1172C15.3864 63.4068 15.345 63.9858 15.2623 64.813C15.1796 65.6403 14.8901 66.4675 14.4351 67.2947C13.9388 68.1633 13.1943 68.9078 12.1602 69.5282C11.6639 69.8178 11.0848 70.0659 10.3817 70.2727L11.5398 79.2068H6.36964L5.21152 70.3141C4.42566 70.1487 3.76388 69.9005 3.22618 69.5282C2.19215 68.8664 1.44765 68.1219 0.95131 67.2947C0.454974 66.4261 0.206806 65.5989 0.124084 64.813C0.041361 63.9858 0 63.4481 0 63.1172V8.68573C0 8.47892 -6.31508e-07 8.18939 0.0413607 7.77578C0.082722 7.36217 0.165446 6.90719 0.28953 6.41086C0.413613 5.91452 0.661781 5.37683 0.95131 4.88049C1.2822 4.34279 1.69581 3.88782 2.27487 3.43284C2.85393 2.97787 3.55707 2.64698 4.42566 2.35745C5.29425 2.06792 6.36964 1.94384 7.65184 1.94384C8.93404 1.94384 10.0094 2.06792 10.878 2.35745C11.7466 2.64698 12.4911 2.97787 13.0288 3.43284C13.6079 3.88782 14.0215 4.34279 14.3524 4.88049C14.6833 5.41819 14.8901 5.91452 15.0142 6.41086C15.1382 6.90719 15.221 7.36217 15.2623 7.77578C15.3037 8.18939 15.3037 8.47892 15.3037 8.68573V63.1172H15.3864ZM5.17016 63.1172C5.17016 63.4068 5.17016 63.779 5.21152 64.234C5.25289 64.6476 5.33561 65.0612 5.50106 65.4335C5.6665 65.8057 5.91467 66.1366 6.24556 66.4261C6.57645 66.7157 7.07278 66.8397 7.73456 66.8397C8.35498 66.8397 8.85132 66.7157 9.22357 66.4261C9.55447 66.1366 9.84399 65.8471 9.96808 65.4335C10.1335 65.0612 10.2162 64.6476 10.2576 64.234C10.299 63.8204 10.299 63.4481 10.299 63.1172V8.68573C10.299 8.3962 10.299 8.02395 10.2576 7.69306C10.2162 7.32081 10.1335 6.98992 9.96808 6.70039C9.80263 6.41086 9.55447 6.16269 9.22357 5.95588C8.89268 5.74908 8.39635 5.66636 7.73456 5.66636C7.11414 5.66636 6.61781 5.74908 6.24556 5.95588C5.91467 6.16269 5.62514 6.41086 5.50106 6.70039C5.33561 6.98992 5.25289 7.32081 5.21152 7.69306C5.17016 8.06531 5.17016 8.3962 5.17016 8.68573V63.1172Z" fill="white"/>
<path d="M31.5587 24.155L30.3179 42.7262L27.7121 81.0681H22.5833L18.7367 14.2696H23.8655L25.1891 61.2561L29.0357 14.2696H33.3786L37.2252 61.2974L39.2105 14.2696H44.3393L40.5341 81.0681H35.4053L32.7995 42.7262L31.5587 24.155Z" fill="white"/>
<path d="M58.2367 3.72252H51.8257V29.6974H56.9545V33.4199H51.8257V63.076H58.2367V66.7985H46.6969V0H58.2367V3.72252Z" fill="white"/>
<path d="M91.119 6.90718V10.6297H85.9902V73.7057H80.8614V10.6297H75.7326V6.90718H91.119Z" fill="white"/>
</svg>
